<svg width="622" height="477" viewBox="0 0 622 477" fill="none" xmlns="http://www.w3.org/2000/svg">
<g filter="url(#filter0_d_225_201)">
<path d="M303.797 62.9202L117.454 135.522C112.683 137.38 110.014 142.472 111.2 147.453L135.386 249.034L116.115 152.682C115.119 147.701 117.919 142.742 122.698 141.021L307.771 74.395C310.045 73.5763 312.535 73.5871 314.802 74.4256L495.13 141.122C499.686 142.807 502.435 147.458 501.714 152.262L487.199 249.034L509.007 147.262C510.058 142.358 507.409 137.414 502.745 135.573L318.774 62.9535C313.965 61.0549 308.615 61.043 303.797 62.9202Z" fill="url(#paint0_linear_225_201)"/>
<path d="M75 256.91L166.891 262.161L80.2509 264.787V325.172L166.891 330.423L75 333.049V256.91Z" fill="url(#paint1_linear_225_201)"/>
<path d="M172.142 325.172L182.644 361.929L311.292 380.307L439.94 359.303L453.068 325.172L442.566 367.18L311.292 388.184L177.393 364.554L172.142 325.172Z" fill="url(#paint2_linear_225_201)"/>
<path d="M539.708 325.172L458.319 330.423H547.585L544.959 259.536L455.693 262.161L539.708 264.787V325.172Z" fill="url(#paint3_linear_225_201)"/>
<path d="M193.146 241.157L222.026 243.783H187.895L164.266 238.532L174.768 220.154V180.772L198.397 141.39L229.903 133.513L245.746 113.144C247.372 111.052 249.745 109.671 252.368 109.291L296.699 102.855C297.675 102.713 298.66 102.642 299.646 102.642H323.288C324.281 102.642 325.273 102.714 326.256 102.858L370.224 109.287C372.842 109.67 375.211 111.05 376.835 113.139L392.682 133.513L424.187 144.015L447.817 180.772L445.191 222.779L455.693 238.532L421.562 246.408H400.558L450.442 235.906L442.566 225.405L424.187 230.656L408.435 228.03L424.187 225.405L439.94 220.154L442.566 186.023H411.06L439.94 180.772L418.936 146.64L390.056 136.139L358.551 133.513L384.805 130.888L371.678 112.509L324.214 105.125L298.575 104.1L245.656 115.135L232.528 133.513H256.157L201.023 146.64L180.019 183.397L208.899 186.023H177.393L180.019 220.154L195.772 225.405L211.524 230.656H193.146L177.393 225.405L172.142 235.906L193.146 241.157Z" fill="url(#paint4_linear_225_201)"/>
<path d="M253.532 117.76L295.539 111.279L294.31 111.828C285.689 115.681 286.495 128.174 295.539 130.888L245.656 128.262L253.532 117.76Z" fill="url(#paint5_linear_225_201)"/>
<path d="M324.42 130.888L325.905 130.516C335.415 128.139 336.362 114.996 327.291 111.279L369.053 117.76L374.304 128.262L324.42 130.888Z" fill="url(#paint6_linear_225_201)"/>
<path d="M277.161 136.139H273.533C270.813 136.139 268.204 137.219 266.281 139.142L261.293 144.13C257.916 147.508 255.371 151.625 253.861 156.156L250.906 165.019L258.933 152.979C260.575 150.516 262.563 148.304 264.836 146.409L277.161 136.139Z" fill="url(#paint7_linear_225_201)"/>
<path d="M353.3 136.139H345.423L357.033 147.174L371.678 162.393L363.802 149.266L353.3 136.139Z" fill="url(#paint8_linear_225_201)"/>
<path d="M203.812 161.299L208.899 154.517L243.03 175.521H214.235C210.818 175.521 207.542 174.164 205.126 171.748L204.511 171.133C203.94 170.561 203.464 169.901 203.102 169.178C201.828 166.629 202.103 163.579 203.812 161.299Z" fill="url(#paint9_linear_225_201)"/>
<path d="M413.686 154.517L376.929 175.521H402.131C402.831 175.521 403.529 175.452 404.216 175.314L410.311 174.095C414.021 173.353 417.049 170.68 418.246 167.09C418.688 165.764 418.585 164.316 417.96 163.066L413.686 154.517Z" fill="url(#paint10_linear_225_201)"/>
<path d="M214.15 191.273L187.895 193.899L208.899 196.524V207.026L195.772 209.652H214.15V191.273Z" fill="url(#paint11_linear_225_201)"/>
<path d="M240.405 186.023L227.277 214.903L245.656 191.273H376.929L395.307 214.903L379.554 186.023H240.405Z" fill="url(#paint12_linear_225_201)"/>
<path d="M264.034 196.524H356.007C354.353 199.733 351.003 201.706 347.395 201.598L310.882 200.504L272.528 201.607C268.949 201.71 265.635 199.727 264.034 196.524Z" fill="url(#paint13_linear_225_201)"/>
<path d="M355.952 204.401H259.706C259.109 204.401 258.531 204.609 258.071 204.989C256.199 206.534 257.32 209.574 259.747 209.536L311.908 208.708L355.904 209.534C358.199 209.577 359.392 206.817 357.788 205.174C357.305 204.68 356.643 204.401 355.952 204.401Z" fill="url(#paint14_linear_225_201)"/>
<path d="M371.678 214.903H243.03L311.908 218.964L371.678 214.903Z" fill="url(#paint15_linear_225_201)"/>
<path d="M384.805 235.906H229.903L313.936 243.686C314.633 243.75 315.335 243.743 316.031 243.665L384.805 235.906Z" fill="url(#paint16_linear_225_201)"/>
<path d="M432.064 193.899L405.809 191.273V209.652H424.187L411.06 207.026V196.524L432.064 193.899Z" fill="url(#paint17_linear_225_201)"/>
<path d="M303.797 62.9202L117.454 135.522C112.683 137.38 110.014 142.472 111.2 147.453L135.386 249.034L116.115 152.682C115.119 147.701 117.919 142.742 122.698 141.021L307.771 74.395C310.045 73.5763 312.535 73.5871 314.802 74.4256L495.13 141.122C499.686 142.807 502.435 147.458 501.714 152.262L487.199 249.034L509.007 147.262C510.058 142.358 507.409 137.414 502.745 135.573L318.774 62.9535C313.965 61.0549 308.615 61.043 303.797 62.9202Z" stroke="url(#paint18_linear_225_201)" stroke-width="3.55039"/>
<path d="M75 256.91L166.891 262.161L80.2509 264.787V325.172L166.891 330.423L75 333.049V256.91Z" stroke="url(#paint19_linear_225_201)" stroke-width="3.55039"/>
<path d="M172.142 325.172L182.644 361.929L311.292 380.307L439.94 359.303L453.068 325.172L442.566 367.18L311.292 388.184L177.393 364.554L172.142 325.172Z" stroke="url(#paint20_linear_225_201)" stroke-width="3.55039"/>
<path d="M539.708 325.172L458.319 330.423H547.585L544.959 259.536L455.693 262.161L539.708 264.787V325.172Z" stroke="url(#paint21_linear_225_201)" stroke-width="3.55039"/>
<path d="M193.146 241.157L222.026 243.783H187.895L164.266 238.532L174.768 220.154V180.772L198.397 141.39L229.903 133.513L245.746 113.144C247.372 111.052 249.745 109.671 252.368 109.291L296.699 102.855C297.675 102.713 298.66 102.642 299.646 102.642H323.288C324.281 102.642 325.273 102.714 326.256 102.858L370.224 109.287C372.842 109.67 375.211 111.05 376.835 113.139L392.682 133.513L424.187 144.015L447.817 180.772L445.191 222.779L455.693 238.532L421.562 246.408H400.558L450.442 235.906L442.566 225.405L424.187 230.656L408.435 228.03L424.187 225.405L439.94 220.154L442.566 186.023H411.06L439.94 180.772L418.936 146.64L390.056 136.139L358.551 133.513L384.805 130.888L371.678 112.509L324.214 105.125L298.575 104.1L245.656 115.135L232.528 133.513H256.157L201.023 146.64L180.019 183.397L208.899 186.023H177.393L180.019 220.154L195.772 225.405L211.524 230.656H193.146L177.393 225.405L172.142 235.906L193.146 241.157Z" stroke="url(#paint22_linear_225_201)" stroke-width="3.55039"/>
<path d="M253.532 117.76L295.539 111.279L294.31 111.828C285.689 115.681 286.495 128.174 295.539 130.888L245.656 128.262L253.532 117.76Z" stroke="url(#paint23_linear_225_201)" stroke-width="3.55039"/>
<path d="M324.42 130.888L325.905 130.516C335.415 128.139 336.362 114.996 327.291 111.279L369.053 117.76L374.304 128.262L324.42 130.888Z" stroke="url(#paint24_linear_225_201)" stroke-width="3.55039"/>
<path d="M277.161 136.139H273.533C270.813 136.139 268.204 137.219 266.281 139.142L261.293 144.13C257.916 147.508 255.371 151.625 253.861 156.156L250.906 165.019L258.933 152.979C260.575 150.516 262.563 148.304 264.836 146.409L277.161 136.139Z" stroke="url(#paint25_linear_225_201)" stroke-width="3.55039"/>
<path d="M353.3 136.139H345.423L357.033 147.174L371.678 162.393L363.802 149.266L353.3 136.139Z" stroke="url(#paint26_linear_225_201)" stroke-width="3.55039"/>
<path d="M203.812 161.299L208.899 154.517L243.03 175.521H214.235C210.818 175.521 207.542 174.164 205.126 171.748L204.511 171.133C203.94 170.561 203.464 169.901 203.102 169.178C201.828 166.629 202.103 163.579 203.812 161.299Z" stroke="url(#paint27_linear_225_201)" stroke-width="3.55039"/>
<path d="M413.686 154.517L376.929 175.521H402.131C402.831 175.521 403.529 175.452 404.216 175.314L410.311 174.095C414.021 173.353 417.049 170.68 418.246 167.09C418.688 165.764 418.585 164.316 417.96 163.066L413.686 154.517Z" stroke="url(#paint28_linear_225_201)" stroke-width="3.55039"/>
<path d="M214.15 191.273L187.895 193.899L208.899 196.524V207.026L195.772 209.652H214.15V191.273Z" stroke="url(#paint29_linear_225_201)" stroke-width="3.55039"/>
<path d="M240.405 186.023L227.277 214.903L245.656 191.273H376.929L395.307 214.903L379.554 186.023H240.405Z" stroke="url(#paint30_linear_225_201)" stroke-width="3.55039"/>
<path d="M264.034 196.524H356.007C354.353 199.733 351.003 201.706 347.395 201.598L310.882 200.504L272.528 201.607C268.949 201.71 265.635 199.727 264.034 196.524Z" stroke="url(#paint31_linear_225_201)" stroke-width="3.55039"/>
<path d="M355.952 204.401H259.706C259.109 204.401 258.531 204.609 258.071 204.989C256.199 206.534 257.32 209.574 259.747 209.536L311.908 208.708L355.904 209.534C358.199 209.577 359.392 206.817 357.788 205.174C357.305 204.68 356.643 204.401 355.952 204.401Z" stroke="url(#paint32_linear_225_201)" stroke-width="3.55039"/>
<path d="M371.678 214.903H243.03L311.908 218.964L371.678 214.903Z" stroke="url(#paint33_linear_225_201)" stroke-width="3.55039"/>
<path d="M384.805 235.906H229.903L313.936 243.686C314.633 243.75 315.335 243.743 316.031 243.665L384.805 235.906Z" stroke="url(#paint34_linear_225_201)" stroke-width="3.55039"/>
<path d="M432.064 193.899L405.809 191.273V209.652H424.187L411.06 207.026V196.524L432.064 193.899Z" stroke="url(#paint35_linear_225_201)" stroke-width="3.55039"/>
</g>
<g filter="url(#filter1_d_225_201)">
<mask id="path-2-inside-1_225_201" fill="white">
<path d="M227.401 328.951H214.021C211.004 328.951 208.766 328.321 207.307 327.061C205.848 325.768 205.118 323.762 205.118 321.043V297.466C205.118 294.714 205.848 292.708 207.307 291.448C208.766 290.155 211.004 289.508 214.021 289.508H227.401V295.129H212.181C211.717 295.129 211.485 295.361 211.485 295.825V322.684C211.485 323.115 211.717 323.331 212.181 323.331H227.401V328.951ZM260.618 328.951L258.38 319.053H243.309L240.772 328.951H234.953L243.956 295.676C244.42 293.985 244.901 292.692 245.398 291.796C245.896 290.868 246.608 290.221 247.537 289.856C248.465 289.492 249.759 289.326 251.417 289.359L257.584 289.508L266.885 328.951H260.618ZM249.427 295.576L244.652 313.681H257.186L252.859 294.88H250.123C249.725 294.88 249.493 295.112 249.427 295.576ZM277.38 328.951V289.508L293.993 289.26C297.076 289.193 299.398 289.89 300.956 291.349C302.548 292.774 303.343 294.897 303.343 297.715V304.778C303.343 308.989 301.52 311.659 297.872 312.786C298.867 313.482 299.696 314.792 300.359 316.715L304.686 328.951H298.37L293.396 314.278C293.296 313.98 293.18 313.781 293.048 313.681C292.948 313.549 292.733 313.482 292.401 313.482H283.647V328.951H277.38ZM296.131 294.731H283.647V308.111H296.131C296.662 308.111 296.927 307.829 296.927 307.265V295.527C296.927 294.996 296.662 294.731 296.131 294.731ZM338.494 328.951L336.256 319.053H321.185L318.649 328.951H312.829L321.832 295.676C322.296 293.985 322.777 292.692 323.274 291.796C323.772 290.868 324.485 290.221 325.413 289.856C326.342 289.492 327.635 289.326 329.293 289.359L335.46 289.508L344.762 328.951H338.494ZM327.303 295.576L322.528 313.681H335.062L330.735 294.88H328C327.602 294.88 327.37 295.112 327.303 295.576ZM360.678 328.951V294.93H351.078V289.508H376.495V294.93H366.945V328.951H360.678ZM386.114 296.969C386.114 294.217 386.826 292.211 388.252 290.951C389.711 289.691 391.95 289.061 394.967 289.061H405.213C408.198 289.061 410.419 289.691 411.878 290.951C413.337 292.211 414.067 294.217 414.067 296.969V321.54C414.067 324.259 413.337 326.249 411.878 327.509C410.419 328.769 408.198 329.399 405.213 329.399H394.967C391.95 329.399 389.711 328.769 388.252 327.509C386.826 326.249 386.114 324.259 386.114 321.54V296.969ZM393.127 294.681C392.696 294.681 392.48 294.897 392.48 295.328V323.132C392.48 323.563 392.696 323.778 393.127 323.778H407.004C407.435 323.778 407.65 323.563 407.65 323.132V295.328C407.65 294.897 407.435 294.681 407.004 294.681H393.127Z"/>
</mask>
<path d="M227.401 328.951H214.021C211.004 328.951 208.766 328.321 207.307 327.061C205.848 325.768 205.118 323.762 205.118 321.043V297.466C205.118 294.714 205.848 292.708 207.307 291.448C208.766 290.155 211.004 289.508 214.021 289.508H227.401V295.129H212.181C211.717 295.129 211.485 295.361 211.485 295.825V322.684C211.485 323.115 211.717 323.331 212.181 323.331H227.401V328.951ZM260.618 328.951L258.38 319.053H243.309L240.772 328.951H234.953L243.956 295.676C244.42 293.985 244.901 292.692 245.398 291.796C245.896 290.868 246.608 290.221 247.537 289.856C248.465 289.492 249.759 289.326 251.417 289.359L257.584 289.508L266.885 328.951H260.618ZM249.427 295.576L244.652 313.681H257.186L252.859 294.88H250.123C249.725 294.88 249.493 295.112 249.427 295.576ZM277.38 328.951V289.508L293.993 289.26C297.076 289.193 299.398 289.89 300.956 291.349C302.548 292.774 303.343 294.897 303.343 297.715V304.778C303.343 308.989 301.52 311.659 297.872 312.786C298.867 313.482 299.696 314.792 300.359 316.715L304.686 328.951H298.37L293.396 314.278C293.296 313.98 293.18 313.781 293.048 313.681C292.948 313.549 292.733 313.482 292.401 313.482H283.647V328.951H277.38ZM296.131 294.731H283.647V308.111H296.131C296.662 308.111 296.927 307.829 296.927 307.265V295.527C296.927 294.996 296.662 294.731 296.131 294.731ZM338.494 328.951L336.256 319.053H321.185L318.649 328.951H312.829L321.832 295.676C322.296 293.985 322.777 292.692 323.274 291.796C323.772 290.868 324.485 290.221 325.413 289.856C326.342 289.492 327.635 289.326 329.293 289.359L335.46 289.508L344.762 328.951H338.494ZM327.303 295.576L322.528 313.681H335.062L330.735 294.88H328C327.602 294.88 327.37 295.112 327.303 295.576ZM360.678 328.951V294.93H351.078V289.508H376.495V294.93H366.945V328.951H360.678ZM386.114 296.969C386.114 294.217 386.826 292.211 388.252 290.951C389.711 289.691 391.95 289.061 394.967 289.061H405.213C408.198 289.061 410.419 289.691 411.878 290.951C413.337 292.211 414.067 294.217 414.067 296.969V321.54C414.067 324.259 413.337 326.249 411.878 327.509C410.419 328.769 408.198 329.399 405.213 329.399H394.967C391.95 329.399 389.711 328.769 388.252 327.509C386.826 326.249 386.114 324.259 386.114 321.54V296.969ZM393.127 294.681C392.696 294.681 392.48 294.897 392.48 295.328V323.132C392.48 323.563 392.696 323.778 393.127 323.778H407.004C407.435 323.778 407.65 323.563 407.65 323.132V295.328C407.65 294.897 407.435 294.681 407.004 294.681H393.127Z" fill="#F7E9A8"/>
<path d="M227.401 328.951V339.207H237.657V328.951H227.401ZM207.307 327.061L200.504 334.736L200.553 334.78L200.603 334.823L207.307 327.061ZM207.307 291.448L214.01 299.21L214.06 299.167L214.109 299.123L207.307 291.448ZM227.401 289.508H237.657V279.253H227.401V289.508ZM227.401 295.129V305.385H237.657V295.129H227.401ZM227.401 323.331H237.657V313.075H227.401V323.331ZM227.401 318.695H214.021V339.207H227.401V318.695ZM214.021 318.695C213.62 318.695 213.326 318.674 213.125 318.65C212.924 318.626 212.843 318.602 212.859 318.607C212.893 318.616 213.392 318.765 214.01 319.299L200.603 334.823C204.728 338.385 209.866 339.207 214.021 339.207V318.695ZM214.109 319.386C214.776 319.977 215.142 320.636 215.304 321.082C215.442 321.462 215.374 321.519 215.374 321.043H194.862C194.862 325.496 196.088 330.821 200.504 334.736L214.109 319.386ZM215.374 321.043V297.466H194.862V321.043H215.374ZM215.374 297.466C215.374 296.957 215.446 297.01 215.304 297.403C215.135 297.865 214.745 298.575 214.01 299.21L200.603 283.686C196.054 287.615 194.862 293.049 194.862 297.466H215.374ZM214.109 299.123C213.497 299.665 212.989 299.828 212.926 299.846C212.899 299.854 212.968 299.832 213.157 299.809C213.346 299.785 213.629 299.764 214.021 299.764V279.253C209.814 279.253 204.633 280.113 200.504 283.773L214.109 299.123ZM214.021 299.764H227.401V279.253H214.021V299.764ZM217.145 289.508V295.129H237.657V289.508H217.145ZM227.401 284.873H212.181V305.385H227.401V284.873ZM212.181 284.873C210.368 284.873 207.125 285.333 204.407 288.051C201.689 290.769 201.229 294.012 201.229 295.825H221.741C221.741 297.174 221.396 300.069 218.911 302.555C216.425 305.04 213.53 305.385 212.181 305.385V284.873ZM201.229 295.825V322.684H221.741V295.825H201.229ZM201.229 322.684C201.229 324.683 201.803 328.012 204.68 330.684C207.414 333.223 210.549 333.586 212.181 333.586V313.075C213.349 313.075 216.135 313.33 218.637 315.654C221.283 318.11 221.741 321.116 221.741 322.684H201.229ZM212.181 333.586H227.401V313.075H212.181V333.586ZM217.145 323.331V328.951H237.657V323.331H217.145ZM260.618 328.951L250.615 331.213L252.423 339.207H260.618V328.951ZM258.38 319.053L268.383 316.791L266.576 308.797H258.38V319.053ZM243.309 319.053V308.797H235.35L233.374 316.507L243.309 319.053ZM240.772 328.951V339.207H248.731L250.707 331.497L240.772 328.951ZM234.953 328.951L225.053 326.273L221.554 339.207H234.953V328.951ZM243.956 295.676L234.066 292.961L234.061 292.979L234.056 292.997L243.956 295.676ZM245.398 291.796L254.363 296.777L254.401 296.708L254.438 296.639L245.398 291.796ZM247.537 289.856L251.287 299.402L251.287 299.402L247.537 289.856ZM251.417 289.359L251.665 279.106L251.643 279.106L251.622 279.105L251.417 289.359ZM257.584 289.508L267.566 287.154L265.749 279.447L257.832 279.256L257.584 289.508ZM266.885 328.951V339.207H279.841L276.867 326.597L266.885 328.951ZM249.427 295.576L259.344 298.192L259.495 297.616L259.58 297.027L249.427 295.576ZM244.652 313.681L234.735 311.066L231.341 323.937H244.652V313.681ZM257.186 313.681V323.937H270.071L267.181 311.381L257.186 313.681ZM252.859 294.88L262.853 292.58L261.022 284.624H252.859V294.88ZM270.621 326.689L268.383 316.791L248.377 321.315L250.615 331.213L270.621 326.689ZM258.38 308.797H243.309V329.309H258.38V308.797ZM233.374 316.507L230.838 326.405L250.707 331.497L253.244 321.599L233.374 316.507ZM240.772 318.695H234.953V339.207H240.772V318.695ZM244.853 331.63L253.856 298.354L234.056 292.997L225.053 326.273L244.853 331.63ZM253.846 298.391C254.018 297.762 254.165 297.313 254.277 297.012C254.395 296.695 254.435 296.648 254.363 296.777L236.433 286.816C235.355 288.756 234.617 290.954 234.066 292.961L253.846 298.391ZM254.438 296.639C254.185 297.112 253.787 297.676 253.196 298.212C252.599 298.753 251.936 299.147 251.287 299.402L243.787 280.311C240.459 281.618 237.935 284.009 236.358 286.953L254.438 296.639ZM251.287 299.402C251.015 299.509 250.806 299.566 250.684 299.595C250.56 299.625 250.497 299.632 250.507 299.631C250.517 299.63 250.579 299.622 250.702 299.617C250.824 299.611 250.992 299.608 251.211 299.613L251.622 279.105C249.39 279.061 246.538 279.23 243.787 280.311L251.287 299.402ZM251.168 299.612L257.336 299.761L257.832 279.256L251.665 279.106L251.168 299.612ZM247.602 291.862L256.903 331.305L276.867 326.597L267.566 287.154L247.602 291.862ZM266.885 318.695H260.618V339.207H266.885V318.695ZM239.51 292.961L234.735 311.066L254.569 316.297L259.344 298.192L239.51 292.961ZM244.652 323.937H257.186V303.426H244.652V323.937ZM267.181 311.381L262.853 292.58L242.865 297.18L247.192 315.982L267.181 311.381ZM252.859 284.624H250.123V305.136H252.859V284.624ZM250.123 284.624C247.82 284.624 244.834 285.367 242.399 287.802C240.168 290.033 239.491 292.609 239.274 294.126L259.58 297.027C259.429 298.08 258.901 300.307 256.903 302.306C254.7 304.509 252.029 305.136 250.123 305.136V284.624ZM277.38 328.951H267.124V339.207H277.38V328.951ZM277.38 289.508L277.226 279.254L267.124 279.405V289.508H277.38ZM293.993 289.26L294.146 299.514L294.18 299.514L294.213 299.513L293.993 289.26ZM300.956 291.349L293.947 298.836L294.029 298.912L294.113 298.987L300.956 291.349ZM297.872 312.786L294.844 302.988L274.829 309.174L291.991 321.188L297.872 312.786ZM300.359 316.715L290.664 320.059L290.677 320.097L290.69 320.135L300.359 316.715ZM304.686 328.951V339.207H319.192L314.355 325.532L304.686 328.951ZM298.37 328.951L288.657 332.244L291.017 339.207H298.37V328.951ZM293.396 314.278L283.666 317.521L283.674 317.546L283.683 317.571L293.396 314.278ZM293.048 313.681L284.843 319.835L285.722 321.007L286.894 321.886L293.048 313.681ZM283.647 313.482V303.227H273.391V313.482H283.647ZM283.647 328.951V339.207H293.903V328.951H283.647ZM283.647 294.731V284.475H273.391V294.731H283.647ZM283.647 308.111H273.391V318.366H283.647V308.111ZM287.636 328.951V289.508H267.124V328.951H287.636ZM277.533 299.763L294.146 299.514L293.839 279.005L277.226 279.254L277.533 299.763ZM294.213 299.513C294.961 299.497 295.202 299.586 295.099 299.555C295.037 299.537 294.88 299.483 294.664 299.362C294.443 299.24 294.194 299.067 293.947 298.836L307.965 283.862C303.726 279.893 298.344 278.908 293.772 279.006L294.213 299.513ZM294.113 298.987C293.878 298.777 293.667 298.534 293.492 298.274C293.318 298.016 293.209 297.784 293.144 297.611C293.019 297.278 293.088 297.247 293.088 297.715H313.599C313.599 292.963 312.2 287.652 307.799 283.71L294.113 298.987ZM293.088 297.715V304.778H313.599V297.715H293.088ZM293.088 304.778C293.088 305.438 292.949 304.971 293.508 304.153C293.778 303.757 294.107 303.442 294.419 303.226C294.715 303.021 294.896 302.972 294.844 302.988L300.901 322.584C304.522 321.465 307.998 319.304 310.444 315.724C312.826 312.237 313.599 308.329 313.599 304.778H293.088ZM291.991 321.188C291.115 320.575 290.693 319.963 290.574 319.775C290.455 319.588 290.516 319.629 290.664 320.059L310.055 313.372C309.117 310.653 307.363 306.911 303.753 304.384L291.991 321.188ZM290.69 320.135L295.018 332.371L314.355 325.532L310.028 313.296L290.69 320.135ZM304.686 318.695H298.37V339.207H304.686V318.695ZM308.082 325.659L303.109 310.986L283.683 317.571L288.657 332.244L308.082 325.659ZM303.125 311.035C302.87 310.269 301.936 307.528 299.201 305.477L286.894 321.886C285.527 320.861 284.757 319.727 284.375 319.073C283.975 318.387 283.765 317.817 283.666 317.521L303.125 311.035ZM301.252 307.528C299.507 305.201 297.274 304.175 295.827 303.73C294.4 303.291 293.156 303.227 292.401 303.227V323.738C291.978 323.738 291.007 323.707 289.795 323.334C288.564 322.956 286.489 322.029 284.843 319.835L301.252 307.528ZM292.401 303.227H283.647V323.738H292.401V303.227ZM273.391 313.482V328.951H293.903V313.482H273.391ZM283.647 318.695H277.38V339.207H283.647V318.695ZM296.131 284.475H283.647V304.987H296.131V284.475ZM273.391 294.731V308.111H293.903V294.731H273.391ZM283.647 318.366H296.131V297.855H283.647V318.366ZM296.131 318.366C298.142 318.366 301.491 317.802 304.196 314.928C306.792 312.171 307.183 308.978 307.183 307.265H286.671C286.671 306.116 286.93 303.346 289.26 300.87C291.7 298.278 294.651 297.855 296.131 297.855V318.366ZM307.183 307.265V295.527H286.671V307.265H307.183ZM307.183 295.527C307.183 293.681 306.714 290.412 303.98 287.678C301.246 284.944 297.977 284.475 296.131 284.475V304.987C294.816 304.987 291.945 304.651 289.476 302.182C287.007 299.713 286.671 296.842 286.671 295.527H307.183ZM338.494 328.951L328.491 331.213L330.299 339.207H338.494V328.951ZM336.256 319.053L346.259 316.791L344.452 308.797H336.256V319.053ZM321.185 319.053V308.797H313.227L311.251 316.507L321.185 319.053ZM318.649 328.951V339.207H326.607L328.583 331.497L318.649 328.951ZM312.829 328.951L302.929 326.273L299.43 339.207H312.829V328.951ZM321.832 295.676L311.942 292.961L311.937 292.979L311.932 292.997L321.832 295.676ZM323.274 291.796L332.239 296.777L332.278 296.708L332.315 296.639L323.274 291.796ZM325.413 289.856L329.163 299.402L329.163 299.402L325.413 289.856ZM329.293 289.359L329.541 279.106L329.519 279.106L329.498 279.105L329.293 289.359ZM335.46 289.508L345.442 287.154L343.625 279.447L335.708 279.256L335.46 289.508ZM344.762 328.951V339.207H357.717L354.743 326.597L344.762 328.951ZM327.303 295.576L337.22 298.192L337.372 297.616L337.456 297.027L327.303 295.576ZM322.528 313.681L312.612 311.066L309.217 323.937H322.528V313.681ZM335.062 313.681V323.937H347.947L345.057 311.381L335.062 313.681ZM330.735 294.88L340.73 292.58L338.899 284.624H330.735V294.88ZM348.498 326.689L346.259 316.791L326.253 321.315L328.491 331.213L348.498 326.689ZM336.256 308.797H321.185V329.309H336.256V308.797ZM311.251 316.507L308.714 326.405L328.583 331.497L331.12 321.599L311.251 316.507ZM318.649 318.695H312.829V339.207H318.649V318.695ZM322.729 331.63L331.732 298.354L311.932 292.997L302.929 326.273L322.729 331.63ZM331.722 298.391C331.894 297.762 332.042 297.313 332.154 297.012C332.271 296.695 332.311 296.648 332.239 296.777L314.309 286.816C313.231 288.756 312.493 290.954 311.942 292.961L331.722 298.391ZM332.315 296.639C332.061 297.112 331.663 297.676 331.072 298.212C330.475 298.753 329.812 299.147 329.163 299.402L321.663 280.311C318.335 281.618 315.811 284.009 314.234 286.953L332.315 296.639ZM329.163 299.402C328.892 299.509 328.683 299.566 328.56 299.595C328.437 299.625 328.373 299.632 328.384 299.631C328.393 299.63 328.455 299.622 328.578 299.617C328.7 299.611 328.869 299.608 329.088 299.613L329.498 279.105C327.266 279.061 324.414 279.23 321.663 280.311L329.163 299.402ZM329.045 299.612L335.212 299.761L335.708 279.256L329.541 279.106L329.045 299.612ZM325.478 291.862L334.78 331.305L354.743 326.597L345.442 287.154L325.478 291.862ZM344.762 318.695H338.494V339.207H344.762V318.695ZM317.387 292.961L312.612 311.066L332.445 316.297L337.22 298.192L317.387 292.961ZM322.528 323.937H335.062V303.426H322.528V323.937ZM345.057 311.381L340.73 292.58L320.741 297.18L325.068 315.982L345.057 311.381ZM330.735 284.624H328V305.136H330.735V284.624ZM328 284.624C325.696 284.624 322.71 285.367 320.275 287.802C318.044 290.033 317.367 292.609 317.151 294.126L337.456 297.027C337.305 298.08 336.778 300.307 334.779 302.306C332.576 304.509 329.905 305.136 328 305.136V284.624ZM360.678 328.951H350.422V339.207H360.678V328.951ZM360.678 294.93H370.933V284.674H360.678V294.93ZM351.078 294.93H340.822V305.186H351.078V294.93ZM351.078 289.508V279.253H340.822V289.508H351.078ZM376.495 289.508H386.75V279.253H376.495V289.508ZM376.495 294.93V305.186H386.75V294.93H376.495ZM366.945 294.93V284.674H356.689V294.93H366.945ZM366.945 328.951V339.207H377.2V328.951H366.945ZM370.933 328.951V294.93H350.422V328.951H370.933ZM360.678 284.674H351.078V305.186H360.678V284.674ZM361.334 294.93V289.508H340.822V294.93H361.334ZM351.078 299.764H376.495V279.253H351.078V299.764ZM366.239 289.508V294.93H386.75V289.508H366.239ZM376.495 284.674H366.945V305.186H376.495V284.674ZM356.689 294.93V328.951H377.2V294.93H356.689ZM366.945 318.695H360.678V339.207H366.945V318.695ZM388.252 290.951L381.549 283.189L381.505 283.227L381.461 283.266L388.252 290.951ZM411.878 290.951L418.582 283.189L418.582 283.189L411.878 290.951ZM411.878 327.509L418.582 335.271L418.582 335.271L411.878 327.509ZM388.252 327.509L381.461 335.194L381.505 335.232L381.549 335.271L388.252 327.509ZM396.369 296.969C396.369 296.438 396.443 296.466 396.312 296.835C396.157 297.271 395.782 297.983 395.044 298.636L381.461 283.266C376.995 287.213 375.858 292.619 375.858 296.969H396.369ZM394.956 298.712C394.337 299.247 393.838 299.396 393.804 299.405C393.789 299.41 393.87 299.386 394.071 299.362C394.271 299.338 394.565 299.316 394.967 299.316V278.805C390.811 278.805 385.674 279.627 381.549 283.189L394.956 298.712ZM394.967 299.316H405.213V278.805H394.967V299.316ZM405.213 299.316C405.603 299.316 405.886 299.337 406.076 299.36C406.267 299.383 406.341 299.406 406.32 299.4C406.272 299.386 405.78 299.235 405.175 298.712L418.582 283.189C414.474 279.641 409.37 278.805 405.213 278.805V299.316ZM405.175 298.712C404.44 298.078 404.05 297.368 403.881 296.905C403.739 296.513 403.811 296.46 403.811 296.969H424.322C424.322 292.551 423.131 287.118 418.582 283.189L405.175 298.712ZM403.811 296.969V321.54H424.322V296.969H403.811ZM403.811 321.54C403.811 322.02 403.742 321.946 403.891 321.541C404.065 321.066 404.458 320.366 405.175 319.747L418.582 335.271C423.105 331.364 424.322 325.972 424.322 321.54H403.811ZM405.175 319.747C405.78 319.224 406.272 319.073 406.32 319.06C406.341 319.054 406.267 319.076 406.076 319.099C405.886 319.122 405.603 319.143 405.213 319.143V339.655C409.37 339.655 414.474 338.818 418.582 335.271L405.175 319.747ZM405.213 319.143H394.967V339.655H405.213V319.143ZM394.967 319.143C394.565 319.143 394.271 319.122 394.071 319.098C393.87 319.074 393.789 319.05 393.804 319.054C393.838 319.064 394.337 319.213 394.956 319.747L381.549 335.271C385.674 338.833 390.811 339.655 394.967 339.655V319.143ZM395.044 319.824C395.765 320.461 396.142 321.163 396.303 321.612C396.44 321.994 396.369 322.042 396.369 321.54H375.858C375.858 325.904 377.019 331.268 381.461 335.194L395.044 319.824ZM396.369 321.54V296.969H375.858V321.54H396.369ZM393.127 284.425C391.33 284.425 388.099 284.881 385.39 287.591C382.68 290.3 382.224 293.531 382.224 295.328H402.736C402.736 296.693 402.388 299.601 399.894 302.095C397.4 304.589 394.492 304.937 393.127 304.937V284.425ZM382.224 295.328V323.132H402.736V295.328H382.224ZM382.224 323.132C382.224 324.928 382.68 328.159 385.39 330.869C388.099 333.578 391.33 334.034 393.127 334.034V313.523C394.492 313.523 397.4 313.871 399.894 316.365C402.388 318.859 402.736 321.766 402.736 323.132H382.224ZM393.127 334.034H407.004V313.523H393.127V334.034ZM407.004 334.034C408.8 334.034 412.031 333.578 414.741 330.869C417.45 328.159 417.906 324.928 417.906 323.132H397.395C397.395 321.766 397.743 318.859 400.237 316.365C402.731 313.871 405.639 313.523 407.004 313.523V334.034ZM417.906 323.132V295.328H397.395V323.132H417.906ZM417.906 295.328C417.906 293.531 417.45 290.3 414.741 287.591C412.031 284.881 408.8 284.425 407.004 284.425V304.937C405.639 304.937 402.731 304.589 400.237 302.095C397.743 299.601 397.395 296.693 397.395 295.328H417.906ZM407.004 284.425H393.127V304.937H407.004V284.425Z" fill="url(#paint36_linear_225_201)" mask="url(#path-2-inside-1_225_201)"/>
</g>
<defs>
<filter id="filter0_d_225_201" x="0.76165" y="0.957454" width="621.128" height="475.164" filterUnits="userSpaceOnUse" color-interpolation-filters="sRGB">
<feFlood flood-opacity="0" result="BackgroundImageFix"/>
<feColorMatrix in="SourceAlpha" type="matrix" values="0 0 0 0 0 0 0 0 0 0 0 0 0 0 0 0 0 0 127 0" result="hardAlpha"/>
<feOffset dy="13.6743"/>
<feGaussianBlur stdDeviation="36.2315"/>
<feComposite in2="hardAlpha" operator="out"/>
<feColorMatrix type="matrix" values="0 0 0 0 0 0 0 0 0 0 0 0 0 0 0 0 0 0 0.25 0"/>
<feBlend mode="normal" in2="BackgroundImageFix" result="effect1_dropShadow_225_201"/>
<feBlend mode="normal" in="SourceGraphic" in2="effect1_dropShadow_225_201" result="shape"/>
</filter>
<filter id="filter1_d_225_201" x="196.428" y="289.061" width="226.329" height="57.7179" filterUnits="userSpaceOnUse" color-interpolation-filters="sRGB">
<feFlood flood-opacity="0" result="BackgroundImageFix"/>
<feColorMatrix in="SourceAlpha" type="matrix" values="0 0 0 0 0 0 0 0 0 0 0 0 0 0 0 0 0 0 127 0" result="hardAlpha"/>
<feOffset dy="8.69"/>
<feGaussianBlur stdDeviation="4.345"/>
<feComposite in2="hardAlpha" operator="out"/>
<feColorMatrix type="matrix" values="0 0 0 0 0 0 0 0 0 0 0 0 0 0 0 0 0 0 0.25 0"/>
<feBlend mode="normal" in2="BackgroundImageFix" result="effect1_dropShadow_225_201"/>
<feBlend mode="normal" in="SourceGraphic" in2="effect1_dropShadow_225_201" result="shape"/>
</filter>
<linearGradient id="paint0_linear_225_201" x1="311.292" y1="60" x2="311.292" y2="388.184" gradientUnits="userSpaceOnUse">
<stop stop-color="#987C43"/>
<stop offset="0.555" stop-color="#F9EBAA"/>
<stop offset="0.985" stop-color="#A07E43"/>
</linearGradient>
<linearGradient id="paint1_linear_225_201" x1="311.292" y1="60" x2="311.292" y2="388.184" gradientUnits="userSpaceOnUse">
<stop stop-color="#987C43"/>
<stop offset="0.555" stop-color="#F9EBAA"/>
<stop offset="0.985" stop-color="#A07E43"/>
</linearGradient>
<linearGradient id="paint2_linear_225_201" x1="311.292" y1="60" x2="311.292" y2="388.184" gradientUnits="userSpaceOnUse">
<stop stop-color="#987C43"/>
<stop offset="0.555" stop-color="#F9EBAA"/>
<stop offset="0.985" stop-color="#A07E43"/>
</linearGradient>
<linearGradient id="paint3_linear_225_201" x1="311.292" y1="60" x2="311.292" y2="388.184" gradientUnits="userSpaceOnUse">
<stop stop-color="#987C43"/>
<stop offset="0.555" stop-color="#F9EBAA"/>
<stop offset="0.985" stop-color="#A07E43"/>
</linearGradient>
<linearGradient id="paint4_linear_225_201" x1="311.292" y1="60" x2="311.292" y2="388.184" gradientUnits="userSpaceOnUse">
<stop stop-color="#987C43"/>
<stop offset="0.555" stop-color="#F9EBAA"/>
<stop offset="0.985" stop-color="#A07E43"/>
</linearGradient>
<linearGradient id="paint5_linear_225_201" x1="311.292" y1="60" x2="311.292" y2="388.184" gradientUnits="userSpaceOnUse">
<stop stop-color="#987C43"/>
<stop offset="0.555" stop-color="#F9EBAA"/>
<stop offset="0.985" stop-color="#A07E43"/>
</linearGradient>
<linearGradient id="paint6_linear_225_201" x1="311.292" y1="60" x2="311.292" y2="388.184" gradientUnits="userSpaceOnUse">
<stop stop-color="#987C43"/>
<stop offset="0.555" stop-color="#F9EBAA"/>
<stop offset="0.985" stop-color="#A07E43"/>
</linearGradient>
<linearGradient id="paint7_linear_225_201" x1="311.292" y1="60" x2="311.292" y2="388.184" gradientUnits="userSpaceOnUse">
<stop stop-color="#987C43"/>
<stop offset="0.555" stop-color="#F9EBAA"/>
<stop offset="0.985" stop-color="#A07E43"/>
</linearGradient>
<linearGradient id="paint8_linear_225_201" x1="311.292" y1="60" x2="311.292" y2="388.184" gradientUnits="userSpaceOnUse">
<stop stop-color="#987C43"/>
<stop offset="0.555" stop-color="#F9EBAA"/>
<stop offset="0.985" stop-color="#A07E43"/>
</linearGradient>
<linearGradient id="paint9_linear_225_201" x1="311.292" y1="60" x2="311.292" y2="388.184" gradientUnits="userSpaceOnUse">
<stop stop-color="#987C43"/>
<stop offset="0.555" stop-color="#F9EBAA"/>
<stop offset="0.985" stop-color="#A07E43"/>
</linearGradient>
<linearGradient id="paint10_linear_225_201" x1="311.292" y1="60" x2="311.292" y2="388.184" gradientUnits="userSpaceOnUse">
<stop stop-color="#987C43"/>
<stop offset="0.555" stop-color="#F9EBAA"/>
<stop offset="0.985" stop-color="#A07E43"/>
</linearGradient>
<linearGradient id="paint11_linear_225_201" x1="311.292" y1="60" x2="311.292" y2="388.184" gradientUnits="userSpaceOnUse">
<stop stop-color="#987C43"/>
<stop offset="0.555" stop-color="#F9EBAA"/>
<stop offset="0.985" stop-color="#A07E43"/>
</linearGradient>
<linearGradient id="paint12_linear_225_201" x1="311.292" y1="60" x2="311.292" y2="388.184" gradientUnits="userSpaceOnUse">
<stop stop-color="#987C43"/>
<stop offset="0.555" stop-color="#F9EBAA"/>
<stop offset="0.985" stop-color="#A07E43"/>
</linearGradient>
<linearGradient id="paint13_linear_225_201" x1="311.292" y1="60" x2="311.292" y2="388.184" gradientUnits="userSpaceOnUse">
<stop stop-color="#987C43"/>
<stop offset="0.555" stop-color="#F9EBAA"/>
<stop offset="0.985" stop-color="#A07E43"/>
</linearGradient>
<linearGradient id="paint14_linear_225_201" x1="311.292" y1="60" x2="311.292" y2="388.184" gradientUnits="userSpaceOnUse">
<stop stop-color="#987C43"/>
<stop offset="0.555" stop-color="#F9EBAA"/>
<stop offset="0.985" stop-color="#A07E43"/>
</linearGradient>
<linearGradient id="paint15_linear_225_201" x1="311.292" y1="60" x2="311.292" y2="388.184" gradientUnits="userSpaceOnUse">
<stop stop-color="#987C43"/>
<stop offset="0.555" stop-color="#F9EBAA"/>
<stop offset="0.985" stop-color="#A07E43"/>
</linearGradient>
<linearGradient id="paint16_linear_225_201" x1="311.292" y1="60" x2="311.292" y2="388.184" gradientUnits="userSpaceOnUse">
<stop stop-color="#987C43"/>
<stop offset="0.555" stop-color="#F9EBAA"/>
<stop offset="0.985" stop-color="#A07E43"/>
</linearGradient>
<linearGradient id="paint17_linear_225_201" x1="311.292" y1="60" x2="311.292" y2="388.184" gradientUnits="userSpaceOnUse">
<stop stop-color="#987C43"/>
<stop offset="0.555" stop-color="#F9EBAA"/>
<stop offset="0.985" stop-color="#A07E43"/>
</linearGradient>
<linearGradient id="paint18_linear_225_201" x1="311.292" y1="60" x2="311.292" y2="388.184" gradientUnits="userSpaceOnUse">
<stop stop-color="#9D7B47"/>
<stop offset="1" stop-color="#F6E39A"/>
</linearGradient>
<linearGradient id="paint19_linear_225_201" x1="311.292" y1="60" x2="311.292" y2="388.184" gradientUnits="userSpaceOnUse">
<stop stop-color="#9D7B47"/>
<stop offset="1" stop-color="#F6E39A"/>
</linearGradient>
<linearGradient id="paint20_linear_225_201" x1="311.292" y1="60" x2="311.292" y2="388.184" gradientUnits="userSpaceOnUse">
<stop stop-color="#9D7B47"/>
<stop offset="1" stop-color="#F6E39A"/>
</linearGradient>
<linearGradient id="paint21_linear_225_201" x1="311.292" y1="60" x2="311.292" y2="388.184" gradientUnits="userSpaceOnUse">
<stop stop-color="#9D7B47"/>
<stop offset="1" stop-color="#F6E39A"/>
</linearGradient>
<linearGradient id="paint22_linear_225_201" x1="311.292" y1="60" x2="311.292" y2="388.184" gradientUnits="userSpaceOnUse">
<stop stop-color="#9D7B47"/>
<stop offset="1" stop-color="#F6E39A"/>
</linearGradient>
<linearGradient id="paint23_linear_225_201" x1="311.292" y1="60" x2="311.292" y2="388.184" gradientUnits="userSpaceOnUse">
<stop stop-color="#9D7B47"/>
<stop offset="1" stop-color="#F6E39A"/>
</linearGradient>
<linearGradient id="paint24_linear_225_201" x1="311.292" y1="60" x2="311.292" y2="388.184" gradientUnits="userSpaceOnUse">
<stop stop-color="#9D7B47"/>
<stop offset="1" stop-color="#F6E39A"/>
</linearGradient>
<linearGradient id="paint25_linear_225_201" x1="311.292" y1="60" x2="311.292" y2="388.184" gradientUnits="userSpaceOnUse">
<stop stop-color="#9D7B47"/>
<stop offset="1" stop-color="#F6E39A"/>
</linearGradient>
<linearGradient id="paint26_linear_225_201" x1="311.292" y1="60" x2="311.292" y2="388.184" gradientUnits="userSpaceOnUse">
<stop stop-color="#9D7B47"/>
<stop offset="1" stop-color="#F6E39A"/>
</linearGradient>
<linearGradient id="paint27_linear_225_201" x1="311.292" y1="60" x2="311.292" y2="388.184" gradientUnits="userSpaceOnUse">
<stop stop-color="#9D7B47"/>
<stop offset="1" stop-color="#F6E39A"/>
</linearGradient>
<linearGradient id="paint28_linear_225_201" x1="311.292" y1="60" x2="311.292" y2="388.184" gradientUnits="userSpaceOnUse">
<stop stop-color="#9D7B47"/>
<stop offset="1" stop-color="#F6E39A"/>
</linearGradient>
<linearGradient id="paint29_linear_225_201" x1="311.292" y1="60" x2="311.292" y2="388.184" gradientUnits="userSpaceOnUse">
<stop stop-color="#9D7B47"/>
<stop offset="1" stop-color="#F6E39A"/>
</linearGradient>
<linearGradient id="paint30_linear_225_201" x1="311.292" y1="60" x2="311.292" y2="388.184" gradientUnits="userSpaceOnUse">
<stop stop-color="#9D7B47"/>
<stop offset="1" stop-color="#F6E39A"/>
</linearGradient>
<linearGradient id="paint31_linear_225_201" x1="311.292" y1="60" x2="311.292" y2="388.184" gradientUnits="userSpaceOnUse">
<stop stop-color="#9D7B47"/>
<stop offset="1" stop-color="#F6E39A"/>
</linearGradient>
<linearGradient id="paint32_linear_225_201" x1="311.292" y1="60" x2="311.292" y2="388.184" gradientUnits="userSpaceOnUse">
<stop stop-color="#9D7B47"/>
<stop offset="1" stop-color="#F6E39A"/>
</linearGradient>
<linearGradient id="paint33_linear_225_201" x1="311.292" y1="60" x2="311.292" y2="388.184" gradientUnits="userSpaceOnUse">
<stop stop-color="#9D7B47"/>
<stop offset="1" stop-color="#F6E39A"/>
</linearGradient>
<linearGradient id="paint34_linear_225_201" x1="311.292" y1="60" x2="311.292" y2="388.184" gradientUnits="userSpaceOnUse">
<stop stop-color="#9D7B47"/>
<stop offset="1" stop-color="#F6E39A"/>
</linearGradient>
<linearGradient id="paint35_linear_225_201" x1="311.292" y1="60" x2="311.292" y2="388.184" gradientUnits="userSpaceOnUse">
<stop stop-color="#9D7B47"/>
<stop offset="1" stop-color="#F6E39A"/>
</linearGradient>
<linearGradient id="paint36_linear_225_201" x1="309.987" y1="271.951" x2="309.987" y2="348.951" gradientUnits="userSpaceOnUse">
<stop stop-color="#D5B86D"/>
<stop offset="1" stop-color="#EFDCA0"/>
</linearGradient>
</defs>
</svg>
