 <svg  version="1.0" xmlns="http://www.w3.org/2000/svg"  width="270.000000pt" height="175.000000pt" viewBox="0 0 270.000000 175.000000"  preserveAspectRatio="xMidYMid meet">  <g transform="translate(0.000000,175.000000) scale(0.050000,-0.050000)" fill="#6bb345" stroke="none"> <path d="M2376 3400 c-1220 -193 -1799 -1551 -1087 -2550 490 -686 1481 -866 2193 -398 l53 34 254 -213 c308 -259 290 -258 490 -28 201 231 201 242 9 398 -78 63 -185 154 -237 201 l-95 86 52 90 c194 337 245 895 116 1280 -245 734 -1011 1216 -1748 1100z m0 -1285 c68 -234 140 -487 160 -562 l37 -138 102 338 c56 185 132 438 169 562 l66 225 225 0 c273 0 266 59 63 -524 -89 -256 -212 -614 -273 -796 -132 -388 -104 -359 -355 -359 -110 0 -209 6 -221 14 -22 16 -549 1582 -549 1634 0 26 34 31 227 31 l227 0 122 -425z"/> </g> </svg> 