<?xml version="1.0" encoding="utf-8"?>
<!-- Generator: Adobe Illustrator 26.0.2, SVG Export Plug-In . SVG Version: 6.00 Build 0)  -->
<svg version="1.1" id="Layer_1" xmlns="http://www.w3.org/2000/svg" xmlns:xlink="http://www.w3.org/1999/xlink" x="0px" y="0px"
	 viewBox="0 0 96 96" style="enable-background:new 0 0 96 96;" xml:space="preserve">
<style type="text/css">
	.st0{clip-path:url(#SVGID_00000028289797502264886960000001097239733458907267_);}
	.st1{fill:#FFFFFF;filter:url(#Adobe_OpacityMaskFilter);}
	.st2{mask:url(#mask0_92_4229_00000088830386342741033330000012642725417838309294_);}
	.st3{fill:#FFFFFF;filter:url(#Adobe_OpacityMaskFilter_00000059270805497217963420000002436638939716312997_);}
	.st4{mask:url(#mask1_92_4229_00000069399928030859638040000015487046570243456685_);}
	.st5{fill:#FFFFFF;filter:url(#Adobe_OpacityMaskFilter_00000048499945636576146420000005757788895831322268_);}
	.st6{mask:url(#mask2_92_4229_00000118374554159041118580000015663515193388563873_);}
	.st7{fill:#FFFFFF;filter:url(#Adobe_OpacityMaskFilter_00000165931606858431998910000014563313258522176181_);}
	.st8{mask:url(#mask3_92_4229_00000062874383278992910420000017796304930946811283_);}
	.st9{fill:url(#SVGID_00000127756180596241452490000011189220055329169847_);}
	.st10{fill-opacity:0.32;}
	.st11{fill-opacity:0.24;}
	.st12{fill:url(#SVGID_00000183950352498812721540000005423776882495780788_);}
	.st13{fill:url(#SVGID_00000005247398701204509510000009361682365467313304_);}
</style>
<g>
	<defs>
		<rect id="SVGID_1_" width="96" height="96"/>
	</defs>
	<clipPath id="SVGID_00000054238567955323914070000013986936014854839711_">
		<use xlink:href="#SVGID_1_"  style="overflow:visible;"/>
	</clipPath>
	<g style="clip-path:url(#SVGID_00000054238567955323914070000013986936014854839711_);">
		<defs>
			<filter id="Adobe_OpacityMaskFilter" filterUnits="userSpaceOnUse" x="-2" y="0" width="100" height="98">
				<feColorMatrix  type="matrix" values="1 0 0 0 0  0 1 0 0 0  0 0 1 0 0  0 0 0 1 0"/>
			</filter>
		</defs>
		
			<mask maskUnits="userSpaceOnUse" x="-2" y="0" width="100" height="98" id="mask0_92_4229_00000088830386342741033330000012642725417838309294_">
			<path class="st1" d="M96,0H0v96h96V0z"/>
		</mask>
		<g class="st2">
			<defs>
				
					<filter id="Adobe_OpacityMaskFilter_00000052805319346544195190000005177130205491705527_" filterUnits="userSpaceOnUse" x="-2" y="0" width="100" height="98">
					<feColorMatrix  type="matrix" values="1 0 0 0 0  0 1 0 0 0  0 0 1 0 0  0 0 0 1 0"/>
				</filter>
			</defs>
			
				<mask maskUnits="userSpaceOnUse" x="-2" y="0" width="100" height="98" id="mask1_92_4229_00000069399928030859638040000015487046570243456685_">
				<path style="fill:#FFFFFF;filter:url(#Adobe_OpacityMaskFilter_00000052805319346544195190000005177130205491705527_);" d="
					M96,0H0v96h96V0z"/>
			</mask>
			<g class="st4">
				<defs>
					
						<filter id="Adobe_OpacityMaskFilter_00000123398955753455648560000015214685847030219935_" filterUnits="userSpaceOnUse" x="-2" y="0" width="100" height="98">
						<feColorMatrix  type="matrix" values="1 0 0 0 0  0 1 0 0 0  0 0 1 0 0  0 0 0 1 0"/>
					</filter>
				</defs>
				
					<mask maskUnits="userSpaceOnUse" x="-2" y="0" width="100" height="98" id="mask2_92_4229_00000118374554159041118580000015663515193388563873_">
					<path style="fill:#FFFFFF;filter:url(#Adobe_OpacityMaskFilter_00000123398955753455648560000015214685847030219935_);" d="
						M96,0H0v96h96V0z"/>
				</mask>
				<g class="st6">
					<defs>
						
							<filter id="Adobe_OpacityMaskFilter_00000040577346934729095050000006249657029763697039_" filterUnits="userSpaceOnUse" x="-2" y="0" width="100" height="98">
							<feColorMatrix  type="matrix" values="1 0 0 0 0  0 1 0 0 0  0 0 1 0 0  0 0 0 1 0"/>
						</filter>
					</defs>
					
						<mask maskUnits="userSpaceOnUse" x="-2" y="0" width="100" height="98" id="mask3_92_4229_00000062874383278992910420000017796304930946811283_">
						<path style="fill:#FFFFFF;filter:url(#Adobe_OpacityMaskFilter_00000040577346934729095050000006249657029763697039_);" d="
							M1.5,44c-2,2.3-2,5.6,0,7.9L37,92.6c1.6,1.8,4.4,1.8,6,0l3.8-4.4l4.2,4.6c1.6,1.7,4.3,1.7,5.9,0l37.3-40.7
							c2.1-2.3,2.1-5.8,0-8.1L56.9,3.2c-1.6-1.7-4.3-1.7-5.9,0l-4.2,4.6L43,3.4c-1.6-1.8-4.4-1.8-6,0L1.5,44z"/>
					</mask>
					<g class="st8">
						
							<linearGradient id="SVGID_00000106867171049452555510000012753037227654092978_" gradientUnits="userSpaceOnUse" x1="61.2496" y1="-1.9857" x2="5.2497" y2="135.0143" gradientTransform="matrix(1 0 0 -1 0 98)">
							<stop  offset="0" style="stop-color:#742774"/>
							<stop  offset="1" style="stop-color:#BB35A4"/>
						</linearGradient>
						<path style="fill:url(#SVGID_00000106867171049452555510000012753037227654092978_);" d="M40,96L-2,48L40,0l42,48L40,96z"/>
						<g>
							<path class="st10" d="M54,2l44,48L54,98L34.5,76.7c-1.4-1.5-1.4-3.9,0-5.4l17-18.6c1.4-1.5,1.4-3.9,0-5.4l-17-18.6
								c-1.4-1.5-1.4-3.9,0-5.4L54,2z"/>
						</g>
						<g>
							<path class="st11" d="M54,0.4l44,48l-44,48L34.5,75.1c-1.4-1.5-1.4-3.9,0-5.4l17-18.6c1.4-1.5,1.4-3.9,0-5.4l-17-18.6
								c-1.4-1.5-1.4-3.9,0-5.4L54,0.4z"/>
						</g>
						
							<linearGradient id="SVGID_00000168800762129707273170000010515134636957950880_" gradientUnits="userSpaceOnUse" x1="35.8577" y1="99.8485" x2="81.8577" y2="3.8485" gradientTransform="matrix(1 0 0 -1 0 98)">
							<stop  offset="0" style="stop-color:#E48CC7"/>
							<stop  offset="1" style="stop-color:#D467B9"/>
						</linearGradient>
						<path style="fill:url(#SVGID_00000168800762129707273170000010515134636957950880_);" d="M54,0l44,48L54,96L34.5,74.7
							c-1.4-1.5-1.4-3.9,0-5.4l17-18.6c1.4-1.5,1.4-3.9,0-5.4l-17-18.6c-1.4-1.5-1.4-3.9,0-5.4L54,0z"/>
						
							<linearGradient id="SVGID_00000105425168664692768430000010648137871504388522_" gradientUnits="userSpaceOnUse" x1="69.8918" y1="71.5692" x2="83.8919" y2="28.5694" gradientTransform="matrix(1 0 0 -1 0 98)">
							<stop  offset="0" style="stop-color:#E9A1CB"/>
							<stop  offset="1" style="stop-color:#E48CC7"/>
						</linearGradient>
						<path style="fill:url(#SVGID_00000105425168664692768430000010648137871504388522_);" d="M73.1,27.2c1.6-1.7,4.3-1.7,5.9,0
							L98,48L78.9,68.8c-1.6,1.7-4.3,1.7-5.9,0L57.7,52.1c-2.1-2.3-2.1-5.8,0-8.1L73.1,27.2z"/>
					</g>
				</g>
			</g>
		</g>
	</g>
</g>
</svg>
