<?xml version="1.0" standalone="no"?>
<!DOCTYPE svg PUBLIC "-//W3C//DTD SVG 20010904//EN"
 "http://www.w3.org/TR/2001/REC-SVG-20010904/DTD/svg10.dtd">
<svg version="1.0" xmlns="http://www.w3.org/2000/svg"
 width="300.000000pt" height="275.000000pt" viewBox="0 0 300.000000 275.000000"
 preserveAspectRatio="xMidYMid meet">
<metadata>
Created by potrace 1.10, written by Peter Selinger 2001-2011
</metadata>
<g transform="translate(0.000000,275.000000) scale(0.100000,-0.100000)"
fill="#000000" stroke="none">
<path d="M1763 2579 c-6 -6 -9 -17 -7 -23 4 -12 -50 -40 -74 -39 -8 1 -11 -5
-8 -14 3 -8 2 -22 -3 -31 -13 -24 14 -84 45 -103 26 -16 26 -16 -37 -24 -35
-5 -68 -9 -74 -10 -5 0 -20 -7 -33 -14 -20 -11 -25 -10 -36 5 -9 12 -15 14
-20 6 -4 -7 -5 -16 -1 -21 3 -6 -4 -15 -15 -21 -11 -6 -20 -8 -20 -5 0 3 -10
-3 -22 -15 -21 -20 -54 -28 -44 -11 8 13 -16 38 -44 44 -22 5 -25 3 -27 -23
-2 -21 5 -34 20 -45 l22 -15 -30 -24 c-17 -13 -33 -22 -38 -19 -4 2 -6 1 -5
-4 5 -14 -29 -55 -37 -44 -9 16 -35 13 -35 -3 0 -8 7 -16 15 -18 13 -2 11 -9
-7 -35 -13 -18 -29 -31 -36 -28 -8 3 -10 -3 -6 -19 3 -13 0 -29 -8 -37 -7 -8
-14 -21 -16 -29 -2 -8 -7 -17 -10 -20 -4 -3 -8 -12 -9 -20 -4 -38 -41 -193
-42 -176 -2 45 -73 156 -100 156 -6 0 -11 4 -11 9 0 5 -11 12 -25 15 -14 4
-25 10 -25 14 0 4 -15 6 -34 4 -27 -3 -34 0 -39 18 -6 24 -27 19 -27 -6 0 -10
-8 -15 -22 -13 -13 1 -34 -3 -48 -8 -21 -9 -26 -7 -32 8 -4 11 -14 19 -23 19
-20 0 -30 -27 -17 -43 8 -10 4 -20 -18 -41 -16 -15 -35 -24 -41 -20 -7 4 -9 0
-5 -14 4 -11 3 -23 -3 -26 -5 -3 -14 -29 -21 -57 -12 -48 -13 -49 -27 -30 -21
31 -76 29 -91 -4 -6 -14 -16 -25 -22 -25 -5 0 -10 -5 -10 -11 0 -5 4 -8 9 -5
5 4 15 -7 22 -22 10 -23 18 -28 41 -27 15 1 37 10 47 19 19 17 20 17 31 -26 7
-23 17 -49 22 -55 6 -7 7 -20 4 -29 -4 -9 -1 -14 5 -12 6 2 25 -9 43 -26 20
-18 26 -31 19 -33 -16 -6 -17 -39 -1 -49 6 -4 19 3 29 15 14 17 24 21 41 15
30 -10 34 -11 58 -13 14 -1 18 -6 13 -17 -4 -12 -2 -15 8 -12 8 3 13 10 12 16
-3 15 59 24 69 10 5 -9 8 -8 8 5 0 16 4 19 33 21 24 2 97 91 116 140 l18 50
13 -74 c7 -41 20 -92 30 -115 9 -22 15 -46 12 -54 -2 -8 0 -11 6 -8 15 10 23
-35 9 -52 -10 -12 -9 -14 8 -9 15 3 26 -4 42 -29 16 -23 18 -33 9 -33 -8 0
-16 -9 -19 -20 -4 -15 0 -20 13 -20 11 0 22 5 25 11 5 7 13 4 26 -7 10 -9 16
-21 13 -25 -3 -5 1 -9 8 -9 7 -1 24 -10 37 -21 l24 -20 -21 -15 c-15 -10 -21
-24 -20 -49 1 -22 5 -32 12 -27 6 3 19 5 28 4 18 -3 43 32 33 48 -10 15 4 12
33 -9 15 -10 37 -22 50 -25 13 -5 21 -14 20 -23 -2 -9 3 -18 10 -20 6 -3 12 3
12 12 0 13 4 14 23 4 12 -7 25 -17 29 -23 6 -8 8 -8 8 1 0 8 9 9 32 2 18 -5
48 -9 65 -9 40 0 41 -6 8 -32 -29 -23 -46 -75 -33 -101 5 -9 7 -21 4 -25 -3
-5 15 -17 40 -27 29 -12 44 -24 44 -36 0 -25 15 -32 30 -14 10 12 10 18 0 30
-10 12 -10 15 4 15 9 0 24 8 34 18 10 10 24 16 32 14 9 -3 10 0 4 9 -4 8 -7
29 -5 47 2 27 -4 39 -32 66 l-36 33 57 6 c91 10 96 11 110 25 16 14 42 16 42
2 0 -5 7 -10 16 -10 10 0 13 6 9 19 -4 12 0 21 12 25 10 4 18 6 18 4 1 -2 16
12 35 29 34 32 35 32 43 11 11 -29 25 -37 65 -36 28 1 31 4 26 22 -3 12 -8 29
-10 38 -3 9 -16 20 -29 25 l-25 8 35 38 c19 21 34 40 35 42 0 34 14 53 37 52
32 -2 43 22 13 30 -18 5 -21 11 -16 36 3 16 6 36 6 43 0 8 7 14 16 14 9 0 14
6 11 13 -2 6 -10 11 -17 9 -9 -2 -11 8 -8 32 2 20 0 37 -5 39 -4 1 -9 9 -11
17 -5 31 -37 80 -64 97 -15 9 -29 18 -31 19 -2 2 14 20 35 42 43 43 65 69 64
77 -1 28 1 35 10 30 6 -3 10 -1 10 4 0 6 -4 11 -9 11 -4 0 -6 11 -3 25 2 14
11 25 18 25 8 0 14 5 14 10 0 6 -6 10 -14 10 -8 0 -16 15 -20 38 -9 55 -8 62
9 56 18 -7 32 23 17 38 -8 8 -15 8 -26 -1 -12 -10 -17 -8 -29 16 -8 15 -12 34
-9 42 2 8 1 11 -4 9 -5 -3 -21 12 -36 33 -25 35 -26 39 -9 39 23 0 37 17 43
52 4 23 1 27 -25 32 -33 7 -55 -6 -67 -38 -7 -19 -9 -19 -39 11 -17 17 -31 29
-31 27 0 -3 -9 0 -19 6 -13 6 -17 17 -14 30 4 14 0 20 -11 20 -9 0 -16 -7 -16
-15 0 -12 -4 -13 -25 -3 -14 6 -25 14 -25 18 0 4 -8 6 -17 6 -10 0 -46 3 -80
8 l-62 8 31 26 c36 31 49 61 36 86 -7 13 -6 21 3 27 10 6 10 9 2 9 -7 0 -28
11 -47 24 -24 16 -32 26 -24 34 10 10 3 32 -11 32 -4 0 -12 -5 -18 -11z"/>
<path d="M1735 620 c3 -5 13 -10 21 -10 11 0 14 -26 14 -146 0 -128 -2 -148
-17 -160 -16 -12 -10 -13 41 -14 l60 0 -22 20 c-21 20 -22 29 -22 170 l0 150
-41 0 c-24 0 -38 -4 -34 -10z"/>
<path d="M2105 620 c3 -5 13 -10 21 -10 12 0 14 -28 14 -165 0 -103 4 -165 10
-165 6 0 10 4 10 9 0 5 27 7 59 4 57 -5 62 -4 90 25 26 26 31 38 31 80 0 40
-6 57 -27 82 -22 27 -32 31 -62 28 -20 -3 -44 -8 -53 -12 -16 -7 -18 -1 -18
63 l0 71 -41 0 c-24 0 -38 -4 -34 -10z m171 -151 c14 -15 19 -36 19 -74 0 -60
-23 -95 -61 -95 -36 0 -54 36 -54 107 0 48 4 64 18 72 28 17 57 13 78 -10z"/>
<path d="M540 559 l0 -40 34 35 c18 20 43 36 55 36 20 0 21 -4 21 -140 0 -132
-1 -140 -19 -140 -11 0 -23 -4 -26 -10 -4 -6 22 -10 69 -10 42 0 76 2 76 5 0
3 -11 10 -25 15 -25 9 -25 10 -25 145 0 131 1 135 21 135 12 0 37 -16 55 -36
l34 -35 0 40 0 41 -135 0 -135 0 0 -41z"/>
<path d="M1468 590 c21 -9 22 -14 22 -144 0 -130 -1 -134 -22 -142 -16 -5 7
-9 70 -11 76 -3 100 0 125 14 62 37 56 112 -10 140 -25 10 -33 18 -23 21 28 9
60 45 60 69 0 13 -9 32 -20 43 -17 17 -33 20 -122 19 -72 0 -96 -3 -80 -9z
m152 -20 c40 -40 12 -100 -46 -100 l-34 0 0 60 c0 60 0 60 30 60 17 0 39 -9
50 -20z m8 -136 c16 -11 22 -25 22 -53 0 -49 -26 -74 -72 -69 l-33 3 -3 68 -3
67 33 0 c19 0 44 -7 56 -16z"/>
<path d="M1320 540 c0 -23 -5 -30 -19 -30 -11 0 -23 -4 -26 -10 -3 -5 3 -10
14 -10 19 0 21 -6 22 -72 1 -109 7 -122 53 -126 21 -2 43 1 49 7 8 8 3 11 -16
11 -37 0 -48 28 -45 108 l3 67 33 3 c43 4 41 22 -3 22 -32 0 -35 2 -35 30 0
20 -5 30 -15 30 -10 0 -15 -10 -15 -30z"/>
<path d="M869 481 c-24 -25 -29 -38 -29 -79 0 -71 34 -112 95 -112 43 0 101
32 90 50 -3 5 -15 0 -25 -10 -43 -43 -120 -6 -120 56 0 23 3 24 70 24 l70 0 0
28 c0 70 -96 97 -151 43z m95 3 c9 -8 16 -26 16 -40 0 -22 -4 -24 -50 -24 -43
0 -50 3 -50 20 0 23 33 60 54 60 8 0 22 -7 30 -16z"/>
<path d="M1050 500 c0 -5 4 -10 10 -10 10 0 70 -83 70 -98 0 -4 -20 -29 -45
-55 l-45 -47 41 0 c35 0 40 2 30 14 -13 16 -4 43 22 65 12 9 19 6 35 -21 15
-24 18 -36 10 -45 -8 -10 -1 -13 36 -13 25 0 46 5 46 10 0 6 -4 10 -9 10 -5 0
-26 22 -46 50 l-37 50 32 40 c17 22 38 40 46 40 8 0 14 5 14 10 0 6 -18 10
-40 10 -38 0 -54 -14 -28 -22 9 -3 8 -12 -5 -31 -22 -34 -30 -34 -52 -1 -13
20 -14 28 -4 40 10 12 4 14 -35 14 -25 0 -46 -4 -46 -10z"/>
<path d="M1912 485 c-78 -66 -36 -195 63 -195 52 0 89 27 105 75 35 105 -85
190 -168 120z m107 -11 c33 -42 26 -141 -13 -166 -19 -13 -45 -9 -66 12 -16
16 -20 33 -20 80 0 47 4 64 20 80 27 27 55 25 79 -6z"/>
</g>
</svg>
